<?xml version="1.0" encoding="UTF-8" standalone="no"?>
<svg width="209px" height="335px" viewBox="0 0 209 335" version="1.1" xmlns="http://www.w3.org/2000/svg" xmlns:xlink="http://www.w3.org/1999/xlink" xmlns:sketch="http://www.bohemiancoding.com/sketch/ns">
    <!-- Generator: Sketch 3.3 (11970) - http://www.bohemiancoding.com/sketch -->
    <title>Helmand</title>
    <desc>Created with Sketch.</desc>
    <defs></defs>
    <g id="Page-1" stroke="none" stroke-width="1" fill="none" fill-rule="evenodd" sketch:type="MSPage">
        <path d="M193.144531,96.4433594 C189.232142,108.115473 185.101562,119.597656 185.101562,119.597656 L167.990234,133.367188 L136.810547,291.109375 L137.113281,322.34375 L116.410156,326.40625 L110.453125,334.347656 L75.1601562,325.306641 C75.1601562,325.306641 1.37304688,330.763672 1.37304688,327.535156 C1.37304688,324.306641 0.64453125,283.685547 0.64453125,283.685547 L40.8808594,213.869141 L55.25,172.976562 L54.2636719,140.310547 L70.4609375,97.8613281 L119.880859,72.609375 L136.607422,45.2128906 L147.033203,42.3554688 L150.876953,26.359375 L161.259766,8.90429688 L188.412109,7.66210938 L190.140625,0.962890625 L196.597656,0.962890625 L207.738281,14.4453125 L194.226562,42.3417969 L201.78125,69.8359375 L193.144531,96.4433594 Z" id="Helmand" stroke="#979797" sketch:type="MSShapeGroup"></path>
    </g>
</svg>