<?xml version="1.0" encoding="UTF-8" standalone="no"?>
<svg width="247px" height="249px" viewBox="0 0 247 249" version="1.1" xmlns="http://www.w3.org/2000/svg" xmlns:xlink="http://www.w3.org/1999/xlink" xmlns:sketch="http://www.bohemiancoding.com/sketch/ns">
    <!-- Generator: Sketch 3.3 (11970) - http://www.bohemiancoding.com/sketch -->
    <title>Kandahar</title>
    <desc>Created with Sketch.</desc>
    <defs></defs>
    <g id="Page-1" stroke="none" stroke-width="1" fill="none" fill-rule="evenodd" sketch:type="MSPage">
        <path d="M1.11328125,242.34375 L28.3632813,242.34375 L39.9765625,248.246094 L130.859375,221.894531 L140.044922,210.837891 L132.845703,203.138672 L134.445312,161.388672 L146.357422,127.9375 L154.414062,126.695312 L167.539062,107.011719 L177.582031,103.298828 L184.152344,96.3574219 L190.851562,96.3574219 L191.351562,101.8125 L209.447266,107.027344 L245.626953,95 L242.771484,90.0292969 L237.185547,88.171875 L230.001953,79.1171875 L209.5625,75.6308594 L209.191406,60.9902344 L203.248047,58.6328125 L200.392578,61.7324219 L186.722656,62.1035156 L175.466797,51.8203125 L155.269531,54.1777344 L141.644531,64.2324219 L130.503906,63.4902344 L128.533203,51.3632812 L141.216797,44.2265625 L141.830078,22.1582031 L146.544922,12.6015625 L131.318359,0.83203125 L125.392578,5.41796875 L110.607422,11.7460938 L104.908203,18.9296875 L97.3378906,20.9160156 L73.0273438,13.2167969 L66.6992188,17.1875 L58.1445312,16.4433594 L49.1015625,39.5976562 L31.9902344,53.3671875 L0.810546875,211.109375 L1.11328125,242.34375 Z" id="Kandahar" stroke="#979797" sketch:type="MSShapeGroup"></path>
    </g>
</svg>