<?xml version="1.0" encoding="UTF-8" standalone="no"?>
<svg width="531px" height="335px" viewBox="0 0 531 335" version="1.1" xmlns="http://www.w3.org/2000/svg" xmlns:xlink="http://www.w3.org/1999/xlink" xmlns:sketch="http://www.bohemiancoding.com/sketch/ns">
    <defs></defs>
    <g id="Page-1" stroke="none" stroke-width="1" fill="none" fill-rule="evenodd" sketch:type="MSPage">
        <g id="Group" sketch:type="MSLayerGroup" stroke="#979797">
            <path d="M264.113281,322.34375 L291.363281,322.34375 L302.976562,328.246094 L393.859375,301.894531 L403.044922,290.837891 L395.845703,283.138672 L397.445312,241.388672 L409.357422,207.9375 L417.414062,206.695312 L430.539062,187.011719 L440.582031,183.298828 L447.152344,176.357422 L453.851562,176.357422 L454.351562,181.8125 L472.447266,187.027344 L508.626953,175 L505.771484,170.029297 L500.185547,168.171875 L493.001953,159.117188 L472.5625,155.630859 L472.191406,140.990234 L466.248047,138.632812 L463.392578,141.732422 L449.722656,142.103516 L438.466797,131.820312 L418.269531,134.177734 L404.644531,144.232422 L393.503906,143.490234 L391.533203,131.363281 L404.216797,124.226562 L404.830078,102.158203 L409.544922,92.6015625 L394.318359,80.8320312 L388.392578,85.4179688 L373.607422,91.7460938 L367.908203,98.9296875 L360.337891,100.916016 L336.027344,93.2167969 L329.699219,97.1875 L321.144531,96.4433594 L312.101562,119.597656 L294.990234,133.367188 L263.810547,291.109375 L264.113281,322.34375 Z" id="Kandahar" sketch:type="MSShapeGroup"></path>
            <path d="M320.144531,96.4433594 C316.232142,108.115473 312.101562,119.597656 312.101562,119.597656 L294.990234,133.367188 L263.810547,291.109375 L264.113281,322.34375 L243.410156,326.40625 L237.453125,334.347656 L202.160156,325.306641 C202.160156,325.306641 128.373047,330.763672 128.373047,327.535156 C128.373047,324.306641 127.644531,283.685547 127.644531,283.685547 L167.880859,213.869141 L182.25,172.976562 L181.263672,140.310547 L197.460938,97.8613281 L246.880859,72.609375 L263.607422,45.2128906 L274.033203,42.3554688 L277.876953,26.359375 L288.259766,8.90429688 L315.412109,7.66210938 L317.140625,0.962890625 L323.597656,0.962890625 L334.738281,14.4453125 L321.226562,42.3417969 L328.78125,69.8359375 L320.144531,96.4433594 Z" id="Helmand" sketch:type="MSShapeGroup"></path>
            <path d="M128.373047,327.535156 C128.373047,324.306641 127.644531,283.685547 127.644531,283.685547 L167.880859,213.869141 L182.25,172.976562 L181.263672,140.310547 L197.460938,97.8613281 L190.640625,93.5996094 L175.144531,94.3417969 L162.259766,108.46875 L136.236328,102.269531 L87.9296875,103.382812 L77.7753906,130.136719 L66.6328125,137.578125 L64.2773438,156.060547 L76.1601562,189.498047 L70.3320312,193.726562 L70.6894531,203.980469 L0.97265625,281.609375 L111.425781,330.144531 L128.373047,327.535156 Z" id="Nimruz" sketch:type="MSShapeGroup"></path>
            <path d="M493.001953,158.117188 L472.5625,154.630859 L472.191406,139.990234 L466.248047,137.632812 L463.392578,140.732422 L449.722656,141.103516 L438.466797,130.820312 L418.269531,133.177734 L404.644531,143.232422 L393.503906,142.490234 L391.533203,130.363281 L404.216797,123.226562 L404.830078,101.158203 L409.544922,91.6015625 L394.318359,79.8320312 L410.228516,60.9785156 L421.126953,56.6347656 L441.550781,36.3398437 L448.007812,22.4550781 L454.578125,29.9121094 L482.003906,33.3828125 L483.974609,62.234375 L499.228516,68.3046875 L475.560547,102.955078 L483.359375,113.011719 L509.126953,105.683594 L528.923828,118.953125 L523.238281,131.451172 L529.908203,140.621094 L515.054688,150.890625 L507.240234,158.203125 L496.070312,157.947266" id="Zabol" sketch:type="MSShapeGroup"></path>
        </g>
    </g>
</svg>
