<?xml version="1.0" encoding="UTF-8" standalone="no"?>
<svg width="983px" height="766px" viewBox="0 0 983 766" version="1.1" xmlns="http://www.w3.org/2000/svg" xmlns:xlink="http://www.w3.org/1999/xlink" xmlns:sketch="http://www.bohemiancoding.com/sketch/ns">
    <!-- Generator: Sketch 3.3 (11970) - http://www.bohemiancoding.com/sketch -->
    <title>Map</title>
    <desc>Created with Sketch.</desc>
    <defs></defs>
    <g id="Page-1" stroke="none" stroke-width="1" fill="none" fill-rule="evenodd" sketch:type="MSPage">
        <g id="Map" sketch:type="MSLayerGroup" transform="translate(1.000000, 1.000000)" stroke="#979797">
            <path d="M271.113281,752.34375 L298.363281,752.34375 L309.976562,758.246094 L400.859375,731.894531 L410.044922,720.837891 L402.845703,713.138672 L404.445312,671.388672 L416.357422,637.9375 L424.414062,636.695312 L437.539062,617.011719 L447.582031,613.298828 L454.152344,606.357422 L460.851562,606.357422 L461.351562,611.8125 L479.447266,617.027344 L515.626953,605 L512.771484,600.029297 L507.185547,598.171875 L500.001953,589.117188 L479.5625,585.630859 L479.191406,570.990234 L473.248047,568.632812 L470.392578,571.732422 L456.722656,572.103516 L445.466797,561.820312 L425.269531,564.177734 L411.644531,574.232422 L400.503906,573.490234 L398.533203,561.363281 L411.216797,554.226562 L411.830078,532.158203 L416.544922,522.601562 L401.318359,510.832031 L395.392578,515.417969 L380.607422,521.746094 L374.908203,528.929688 L367.337891,530.916016 L343.027344,523.216797 L336.699219,527.1875 L328.144531,526.443359 L319.101562,549.597656 L301.990234,563.367188 L270.810547,721.109375 L271.113281,752.34375 Z" id="Kandahar" sketch:type="MSShapeGroup"></path>
            <path d="M535.074219,542.521484 L535.923828,568.628906 L526.785156,578.484375 L518.238281,578.136719 L500.001953,589.117188 L479.5625,585.630859 L479.191406,570.990234 L473.248047,568.632812 L470.392578,571.732422 L456.722656,572.103516 L445.466797,561.820312 L425.269531,564.177734 L411.644531,574.232422 L400.503906,573.490234 L398.533203,561.363281 L411.216797,554.226562 L411.830078,532.158203 L416.544922,522.601562 L401.318359,510.832031 L418.826172,486.78125 L429.792969,483.669922 L448.132812,464.302734 L454.333984,450.835938 L454.767578,417.091797 L491.257812,396.179688 L469.564453,378.773438 L503.828125,359.710938 L518.083984,369.623047 L532.966797,364.039062 L542.636719,373.464844 L537.308594,381.279297 L548.09375,391.191406 L558.990234,383.150391 L568.775391,387.492188 L560.333984,402.71875 L567.388672,408.673828 L579.029297,403.603516 L586.699219,411.53125 L585.585938,428.642578 L575.787109,435.470703 L576.658203,445.882812 L561.917969,456.167969 L561.546875,466.322266 L548.664062,484.162109 L520.667969,484.533203 L522.283203,498.417969 L532.808594,504.117188 L535.074219,542.521484" id="Zabol" sketch:type="MSShapeGroup"></path>
            <path d="M327.144531,526.443359 C323.232142,538.115473 319.101562,549.597656 319.101562,549.597656 L301.990234,563.367188 L270.810547,721.109375 L271.113281,752.34375 L250.410156,756.40625 L244.453125,764.347656 L209.160156,755.306641 C209.160156,755.306641 135.373047,760.763672 135.373047,757.535156 C135.373047,754.306641 134.644531,713.685547 134.644531,713.685547 L174.880859,643.869141 L189.25,602.976562 L188.263672,570.310547 L204.460938,527.861328 L253.880859,502.609375 L270.607422,475.212891 L281.033203,472.355469 L284.876953,456.359375 L295.259766,438.904297 L322.412109,437.662109 L324.140625,430.962891 L330.597656,430.962891 L341.738281,444.445312 L328.226562,472.341797 L335.78125,499.835938 L327.144531,526.443359 Z" id="Helmand" sketch:type="MSShapeGroup"></path>
            <path d="M135.373047,757.535156 C135.373047,754.306641 134.644531,713.685547 134.644531,713.685547 L174.880859,643.869141 L189.25,602.976562 L188.263672,570.310547 L204.460938,527.861328 L197.640625,523.599609 L182.144531,524.341797 L169.259766,538.46875 L143.236328,532.269531 L94.9296875,533.382812 L84.7753906,560.136719 L73.6328125,567.578125 L71.2773438,586.060547 L83.1601562,619.498047 L77.3320312,623.726562 L77.6894531,633.980469 L7.97265625,711.609375 L118.425781,760.144531 L135.373047,757.535156 Z" id="Nimruz" sketch:type="MSShapeGroup"></path>
            <path d="M294.271975,440.564922 L284.876953,456.359375 L281.033203,472.355469 L270.607422,475.212891 L253.880859,502.609375 L204.460938,527.861328 L197.640625,523.599609 L182.144531,524.341797 L169.259766,538.46875 L143.236328,532.269531 L94.9296875,533.382812 L84.7753906,560.136719 L73.6328125,567.578125 L71.2773437,586.060547 C71.2773437,586.060547 11.3652344,575.605469 11.3652344,573.119141 C11.3652344,570.632812 5.79492187,528.298828 8.0234375,525.570312 C10.2519531,522.841797 15.9511719,509.201172 15.9511719,509.201172 L1.953125,434.914062 L27.0917969,404.933594 L31.6757812,410.503906 L61.6582031,410.875 L79.2246094,405.675781 L88.7519531,468.708984 L127.773438,463.009766 L129.759766,452.96875 L167.039062,446.769531 L181.050781,432.384766 L213.273438,431.642578 L220.412109,424.353516 L231.136719,424.853516 L244.603516,416.869141 L257.660156,439.583984 L278.085938,439.779297 L280.478516,431.447266 L294.691295,439.461237 L295.259766,438.904297 L294.868909,439.561386 L295.144531,439.716797 L294.271975,440.564922 L294.271975,440.564922 Z" id="Farah" sketch:type="MSShapeGroup"></path>
            <path d="M27.0917969,404.933594 L31.6757812,410.503906 L61.6582031,410.875 L79.2246094,405.675781 L88.7519531,468.708984 L127.773438,463.009766 L129.759766,452.96875 L167.039062,446.769531 L181.050781,432.384766 L178.800781,411.917969 L198.492188,402.625 L212.830078,401.255859 L206.0625,364.525391 L215.310547,348.880859 L229.128906,347.835938 L262.074219,350.839844 L263.074219,321.728516 L246.777344,328.517578 L219.863281,329.5625 L206.896484,318.640625 L186.837891,320.359375 L157.507812,299.710938 L155.941406,265.658203 L144.412109,261.328125 L133.140625,271.728516 L127.744141,264.439453 L112.537109,245.228516 L96.2402344,249.753906 L68.28125,229.046875 L53.5078125,255.289062 L38.5585938,306.181641 L21.8027344,316.996094 L29.5917969,334.814453 L16.4296875,336.207031 L3.265625,346.78125 L3.63671875,379.310547 L0.177734375,383.769531 L4.85546875,395.955078 L27.0917969,404.933594 Z" id="Herat" sketch:type="MSShapeGroup"></path>
            <path d="M330.597656,430.962891 L324.140625,430.962891 L322.412109,437.662109 L294.271975,440.564922 L294.868909,439.561386 L295.259766,438.904297 L294.691295,439.461237 L280.478516,431.447266 L278.085938,439.779297 L257.660156,439.583984 L244.603516,416.869141 L231.136719,424.853516 L220.412109,424.353516 L213.273438,431.642578 L181.050781,432.384766 L178.800781,411.917969 L198.492188,402.625 L212.830078,401.255859 L206.0625,364.525391 L215.310547,348.880859 L229.128906,347.835938 L262.074219,350.839844 L263.074219,321.728516 L283.271484,324.140625 L295.197266,313.458984 L323.875,311.414062 L324.919922,296.117188 L305.685547,271.533203 L351.267578,272.078125 L366.912109,271.554688 L397.65625,302.798828 L420.568359,300.384766 L434.296875,315.962891 L430.011719,352.277344 L395.242188,359.173828 L379.052734,351.689453 L354.619141,350.644531 L354.75,380.128906 L344.152344,388.484375 L341.564453,428.041016 L330.597656,430.962891 Z" id="Ghowr" sketch:type="MSShapeGroup"></path>
            <path d="M395.242188,359.173828 L379.052734,351.689453 L354.619141,350.644531 L354.75,380.128906 L344.152344,388.484375 L341.564453,428.041016 L330.597656,430.962891 L324.140625,430.962891 L322.412109,437.662109 L341.738281,444.445312 L328.226562,472.341797 L335.78125,499.835938 L327.144531,526.443359 L336.699219,527.1875 L343.027344,523.216797 L367.337891,530.916016 L374.908203,528.929688 L380.607422,521.746094 L395.392578,515.417969 L418.826172,486.78125 L429.792969,483.669922 L448.132812,464.302734 L454.333984,450.835938 L454.767578,417.091797 L491.257812,396.179688 L469.564453,378.773438 L429.183594,380.316406 L429.009766,356.013672 L407.427734,355.121094 L395.242188,359.173828 Z" id="Oruzgan" sketch:type="MSShapeGroup"></path>
            <path d="M155.941406,265.658203 L157.507812,299.710938 L186.837891,320.359375 L206.896484,318.640625 L219.863281,329.5625 L246.777344,328.517578 L263.074219,321.728516 L283.271484,324.140625 L295.197266,313.458984 L323.875,311.414062 L324.919922,296.117188 L305.685547,271.533203 L283.880859,274.359375 L267.027344,251.191406 L247.671875,251.191406 L245.072266,204.142578 L238.015625,210.228516 L224.474609,209.486328 L217.162109,216.541016 L194.109375,215.427734 L197.464844,231.152344 L189.294922,239.822266 L190.039062,252.335938 L169.712891,256.419922 L155.941406,265.658203 Z" id="Badghis" sketch:type="MSShapeGroup"></path>
            <path d="M351.267578,272.078125 L305.685547,271.533203 L283.880859,274.359375 L267.027344,251.191406 L247.671875,251.191406 L245.072266,204.142578 L267.476562,191.873047 L285.701172,189.015625 L294.5,160.779297 L311.982422,128.554688 L310.982422,116.042969 L329.921875,104.996094 L359.146484,105.853516 L347.248047,132.621094 L352.576172,143.019531 L356.417969,177.583984 L343.277344,180.554688 L337.449219,185.640625 L336.578125,204.109375 L329.765625,210.792969 L348.689453,216.591797 L372.357422,213.363281 L378.898438,227.232422 L366.486328,226.490234 L365.486328,235.546875 L357.929688,238.888672 L346.417969,257.583984 L351.267578,272.078125 Z" id="Faryab" sketch:type="MSShapeGroup"></path>
            <path d="M343.277344,180.554688 L337.449219,185.640625 L336.578125,204.109375 L329.765625,210.792969 L348.689453,216.591797 L372.357422,213.363281 L378.898438,227.232422 L366.486328,226.490234 L365.486328,235.546875 L357.929688,238.888672 L346.417969,257.583984 L351.267578,272.078125 L366.912109,271.554688 L397.65625,302.798828 L420.568359,300.384766 L426.117188,293.841797 L427.232422,280.6875 L437.244141,276.716797 L446.042969,261.990234 L453.841797,260.876953 L457.183594,250.835938 L470.308594,240.308594 L465.595703,222.339844 L472.037109,213.041016 L463.853516,206.470703 L474.279297,194.458984 L485.078125,185.517578 L495.134766,184.402344 L496.876953,167.933594 L491.792969,153.193359 L472.853516,164.591797 L460.341797,161.992188 L445.228516,172.648438 L434.574219,189.873047 L424.875,185.173828 L432.429688,160.521484 L399.349609,165.091797 L387.695312,179.347656 L367.113281,183.189453 L355.957031,177.990234 L343.277344,180.554688 Z" id="Sar-e-Pol" sketch:type="MSShapeGroup"></path>
            <path d="M432.429688,160.521484 L399.349609,165.091797 L387.695312,179.347656 L367.113281,183.189453 L356.417969,177.583984 L352.576172,143.019531 L347.248047,132.621094 L359.146484,105.853516 L369.853516,99.1621094 L368.238281,83.3066406 L380.507812,82.8066406 L405.289062,99.1464844 L424.472656,97.6464844 L457.820312,95.109375 L482.587891,114.320312 L494.585938,103.050781 L513.410156,110.734375 L513.410156,120.162109 L529.607422,135.388672 L535.564453,132.160156 L547.076172,152.013672 L540.376953,157.228516 L536.648438,165.427734 L523.623047,162.828125 L511.353516,165.798828 L511.595703,184.023438 L505.283203,190.222656 L495.134766,184.402344 L496.876953,167.933594 L491.792969,153.193359 L472.853516,164.591797 L460.341797,161.992188 L445.228516,172.648438 L434.574219,189.873047 L424.875,185.173828 L432.429688,160.521484" id="Balkh" sketch:type="MSShapeGroup"></path>
            <path d="M535.923828,568.628906 L535.074219,542.521484 L532.808594,504.117188 L522.283203,498.417969 L520.667969,484.533203 L548.664062,484.162109 L561.546875,466.322266 L561.917969,456.167969 L576.658203,445.882812 L575.787109,435.470703 L585.585938,428.642578 L596.81543,430.405273 L597.250977,451.586914 L618.053711,440.375 L638.12207,439.510742 L625.617188,457.09375 L636.21582,460.992188 L635.230469,476.71875 L627.552734,483.345703 L632.523438,491.96582 L617.783203,508.991211 L622.611328,521.068359 L625.575195,551.59082 L608.177734,574.865234 C608.177734,574.865234 587.987305,582.365234 588.359375,580.257812 C588.731445,578.150391 582.232422,567.50293 582.232422,567.50293 L568.984375,563.603516 C568.984375,563.603516 553.265625,568.430664 552.273438,568.05957 C551.28125,567.688477 543.417969,564.032227 543.417969,564.032227 L535.923828,568.628906 Z" id="Paktika" sketch:type="MSShapeGroup"></path>
            <path d="M453.841797,260.876953 L446.042969,261.990234 L437.244141,276.716797 L427.232422,280.6875 L426.117188,293.841797 L420.568359,300.384766 L434.296875,315.962891 L429.648438,354.626953 L429.183594,380.316406 L469.564453,378.773438 L503.828125,359.710938 L494.052734,352.382812 L482.039062,345.070312 L501.607422,336.628906 L506.193359,324.488281 L529.587891,328.943359 L546.671875,309.632812 L539.115234,289.808594 L531.445312,274.324219 L536.53125,265.269531 L521.662109,254.242188 L511.992188,258.955078 L496.123047,256.228516 L485.695312,260.199219 L466.242188,264.427734 L453.841797,260.876953 Z" id="Bamian" sketch:type="MSShapeGroup"></path>
            <path d="M579.029297,403.603516 L567.388672,408.673828 L560.333984,402.71875 L568.775391,387.492188 L558.990234,383.150391 L548.09375,391.191406 L537.308594,381.279297 L542.636719,373.464844 L532.966797,364.039062 L518.083984,369.623047 L503.828125,359.710938 L494.052734,352.382812 L482.039062,345.070312 L501.607422,336.628906 L506.193359,324.488281 L529.587891,328.943359 L546.671875,309.632812 L554.775391,325.203125 L568.416016,319.132812 L587.255859,326.689453 L586.384766,339.701172 L599.767578,352.599609 L587.255859,362.626953 L585.269531,372.181641 L581.798828,387.921875 L579.029297,403.603516 Z" id="Wardak" sketch:type="MSShapeGroup"></path>
            <path d="M599.767578,352.599609 L587.255859,362.626953 L585.269531,372.181641 L581.798828,387.921875 L579.029297,403.603516 L586.699219,411.53125 L585.585938,428.642578 L596.81543,430.405273 L597.250977,451.586914 L618.053711,440.375 L638.12207,439.510742 L625.617188,457.09375 L636.21582,460.992188 L654.919922,451.099609 L664.460938,457.3125 L671.773438,446.787109 L683.685547,447.287109 L696.570312,432.302734 L682.300781,419.533203 L682.300781,407.892578 L667.689453,403.921875 L661.761719,383.369141 L668.490234,373.455078 L654.25,357.488281 L632.195312,362.443359 L619.183594,349.431641 L610.742188,356.373047 L599.767578,352.599609 Z" id="Lowgar" sketch:type="MSShapeGroup"></path>
            <path d="M587.255859,326.689453 L586.384766,339.701172 L599.767578,352.599609 L610.742188,356.373047 L619.183594,349.431641 L632.195312,362.443359 L642.453125,349.441406 L655.59375,343.486328 L658.207031,321.802734 L665.763672,312.876953 L653.494141,312.005859 L648.537109,322.546875 L630.197266,328.246094 L617.185547,307.548828 L594.117188,307.177734 L587.255859,326.689453 Z" id="Kabul" sketch:type="MSShapeGroup"></path>
            <path d="M668.490234,373.455078 L654.25,357.488281 L632.195312,362.443359 L642.453125,349.441406 L655.59375,343.486328 L658.207031,321.802734 L665.763672,312.876953 L653.494141,312.005859 L648.537109,322.546875 L632.783203,296.222656 L616.671875,289.910156 L624.470703,271.583984 L650.480469,274.183594 L654.435547,286.953125 L668.433594,271.341797 L660.634766,262.171875 L680.216797,254.859375 L682.574219,240.603516 L696.443359,232.433594 L705.884766,243.603516 L726.482422,251.417969 L727.724609,235.548828 L735.423828,235.048828 L736.910156,223.279297 L748.921875,204.082031 L774.632812,230.908203 L769.048828,240.707031 L779.703125,244.048828 L783.160156,255.546875 L774.603516,263.988281 L782.044922,274.271484 L775.603516,280.228516 L775.232422,292.126953 L746.994141,318.021484 L746.994141,328.835938 L738.681641,330.707031 L737.939453,338.40625 L749.951172,348.189453 L748.835938,371.371094 L705.244141,382.65625 L668.490234,373.455078 Z" id="Nangrahar" sketch:type="MSShapeGroup"></path>
            <path d="M666.714844,227.404297 L674.527344,223.933594 L678.613281,216.878906 L685.068359,219.492188 L682.574219,240.603516 L680.216797,254.859375 L660.634766,262.171875 L668.433594,271.341797 L654.435547,286.953125 L650.480469,274.183594 L624.470703,271.583984 L616.671875,289.910156 L632.783203,296.222656 L648.537109,322.546875 L630.197266,328.246094 L617.185547,307.548828 L594.117188,307.177734 L587.255859,326.689453 L568.416016,319.132812 L554.775391,325.203125 L546.671875,309.632812 L539.115234,289.808594 L531.445312,274.324219 L536.53125,265.269531 L521.662109,254.242188 L511.992188,258.955078 L496.123047,256.228516 L485.695313,260.199219 L466.242188,264.427734 L453.841797,260.876953 L457.183594,250.835938 L470.308594,240.308594 L465.595703,222.339844 L472.037109,213.041016 L463.853516,206.470703 L474.279297,194.458984 L485.078125,185.517578 L495.134766,184.402344 L505.283203,190.222656 L511.595703,184.023438 L511.353516,165.798828 L523.623047,162.828125 L536.648438,165.427734 L540.376953,157.228516 L547.076172,152.013672 L559.234375,164.757812 L577.330078,167.742188 L585.144531,175.927734 L593.199219,174.441406 L609.525391,185.810547 L621.179688,192.623047 L642.490234,182.224609 L642.490234,190.523438 L651.789062,191.638672 L651.417969,204.279297 L664.558594,217.291016 L666.714844,227.404297" id="Baghlan" sketch:type="MSShapeGroup"></path>
            <path d="M609.525391,185.810547 L593.199219,174.441406 L585.144531,175.927734 L577.330078,167.742188 L559.234375,164.757812 L547.076172,152.013672 L535.564453,132.160156 L548.259766,126.550781 L548.003906,117.380859 L592.980469,99.0410156 L613.177734,118.380859 L624.902344,105.087891 L620.058594,90.0898438 L629.486328,79.0488281 L654.625,75.578125 L663.166016,80.0332031 L671.736328,80.4042969 L680.90625,65.0351562 L673.59375,52.8945312 L707.515625,7.33203125 L725.414062,0.2890625 L752.410156,21.484375 L748.195312,41.7949219 L752.794922,49.8359375 L765.064453,41.6660156 L771.763672,45.6386719 L759.380859,113.240234 L772.134766,146.177734 C772.134766,146.177734 781.419922,152.246094 784.890625,150.761719 C788.361328,149.277344 821.412109,120.810547 821.412109,120.810547 L841.042969,117.597656 L852.068359,98.5292969 L893.304688,77.1191406 L915.84375,80.5898438 L910.515625,91.359375 L920.052734,96.4433594 L948.419922,84.1894531 L952.390625,77.1191406 L980.642578,79.8457031 L964.287109,98.171875 L941.763672,128.023438 L930.607422,124.181641 L840.853516,135.080078 L832.341797,142.878906 L814.5,145.978516 L777.865234,169.001953 L748.921875,204.082031 L736.910156,223.279297 L735.423828,235.048828 L727.724609,235.548828 L726.482422,251.417969 L705.884766,243.603516 L696.443359,232.433594 L682.574219,240.603516 L685.068359,219.492188 L678.613281,216.878906 L674.527344,223.933594 L666.714844,227.404297 L664.558594,217.291016 L651.417969,204.279297 L651.789062,191.638672 L642.490234,190.523438 L642.490234,182.224609 L621.179688,192.623047 L609.525391,185.810547" id="Badakhshan" sketch:type="MSShapeGroup"></path>
        </g>
    </g>
</svg>