<?xml version="1.0" encoding="UTF-8" standalone="no"?>
<svg width="140px" height="137px" viewBox="0 0 140 137" version="1.1" xmlns="http://www.w3.org/2000/svg" xmlns:xlink="http://www.w3.org/1999/xlink" xmlns:sketch="http://www.bohemiancoding.com/sketch/ns">
    <!-- Generator: Sketch 3.3 (11970) - http://www.bohemiancoding.com/sketch -->
    <title>Zabol</title>
    <desc>Created with Sketch.</desc>
    <defs></defs>
    <g id="Page-1" stroke="none" stroke-width="1" fill="none" fill-rule="evenodd" sketch:type="MSPage">
        <path d="M102.001953,136.117188 L81.5625,132.630859 L81.1914062,117.990234 L75.2480469,115.632812 L72.3925781,118.732422 L58.7226562,119.103516 L47.4667969,108.820312 L27.2695312,111.177734 L13.6445313,121.232422 L2.50390625,120.490234 L0.533203125,108.363281 L13.2167969,101.226562 L13.8300781,79.1582031 L18.5449219,69.6015625 L3.31835938,57.8320312 L19.2285156,38.9785156 L30.1269531,34.6347656 L50.5507812,14.3398437 L57.0078125,0.455078125 L63.578125,7.91210938 L91.0039062,11.3828125 L92.9746094,40.234375 L108.228516,46.3046875 L84.5605469,80.9550781 L92.359375,91.0117188 L118.126953,83.6835938 L137.923828,96.953125 L132.238281,109.451172 L138.908203,118.621094 L124.054688,128.890625 L116.240234,136.203125 L105.070312,135.947266" id="Zabol" stroke="#979797" sketch:type="MSShapeGroup"></path>
    </g>
</svg>