<?xml version="1.0" encoding="UTF-8" standalone="no"?>
<svg width="538px" height="537px" viewBox="0 0 538 537" version="1.1" xmlns="http://www.w3.org/2000/svg" xmlns:xlink="http://www.w3.org/1999/xlink" xmlns:sketch="http://www.bohemiancoding.com/sketch/ns">
    <!-- Generator: Sketch 3.3 (11970) - http://www.bohemiancoding.com/sketch -->
    <title>Group</title>
    <desc>Created with Sketch.</desc>
    <defs></defs>
    <g id="Page-1" stroke="none" stroke-width="1" fill="none" fill-rule="evenodd" sketch:type="MSPage">
        <g id="Group" sketch:type="MSLayerGroup" transform="translate(1.000000, 1.000000)" stroke="#979797">
            <path d="M271.113281,523.34375 L298.363281,523.34375 L309.976562,529.246094 L400.859375,502.894531 L410.044922,491.837891 L402.845703,484.138672 L404.445312,442.388672 L416.357422,408.9375 L424.414062,407.695312 L437.539062,388.011719 L447.582031,384.298828 L454.152344,377.357422 L460.851562,377.357422 L461.351562,382.8125 L479.447266,388.027344 L515.626953,376 L512.771484,371.029297 L507.185547,369.171875 L500.001953,360.117188 L479.5625,356.630859 L479.191406,341.990234 L473.248047,339.632812 L470.392578,342.732422 L456.722656,343.103516 L445.466797,332.820312 L425.269531,335.177734 L411.644531,345.232422 L400.503906,344.490234 L398.533203,332.363281 L411.216797,325.226562 L411.830078,303.158203 L416.544922,293.601562 L401.318359,281.832031 L395.392578,286.417969 L380.607422,292.746094 L374.908203,299.929688 L367.337891,301.916016 L343.027344,294.216797 L336.699219,298.1875 L328.144531,297.443359 L319.101562,320.597656 L301.990234,334.367188 L270.810547,492.109375 L271.113281,523.34375 Z" id="Kandahar" sketch:type="MSShapeGroup"></path>
            <path d="M500.001953,360.117188 L479.5625,356.630859 L479.191406,341.990234 L473.248047,339.632812 L470.392578,342.732422 L456.722656,343.103516 L445.466797,332.820312 L425.269531,335.177734 L411.644531,345.232422 L400.503906,344.490234 L398.533203,332.363281 L411.216797,325.226562 L411.830078,303.158203 L416.544922,293.601562 L401.318359,281.832031 L418.826172,257.78125 L429.792969,254.669922 L448.132812,235.302734 L454.333984,221.835938 L462.275391,229.40625 L488.775391,232.474609 L490.582031,260.914062 L506.462891,266.636719 L483.3125,301.277344 L489.382812,311.347656 L515.470703,306.300781 L524.916016,313.044922 L535.074219,313.521484 L535.923828,339.628906 L526.785156,349.484375 L518.238281,349.136719 L500.001953,360.117188 Z" id="Zabol" sketch:type="MSShapeGroup"></path>
            <path d="M327.144531,297.443359 C323.232142,309.115473 319.101562,320.597656 319.101562,320.597656 L301.990234,334.367188 L270.810547,492.109375 L271.113281,523.34375 L250.410156,527.40625 L244.453125,535.347656 L209.160156,526.306641 C209.160156,526.306641 135.373047,531.763672 135.373047,528.535156 C135.373047,525.306641 134.644531,484.685547 134.644531,484.685547 L174.880859,414.869141 L189.25,373.976562 L188.263672,341.310547 L204.460938,298.861328 L253.880859,273.609375 L270.607422,246.212891 L281.033203,243.355469 L284.876953,227.359375 L295.259766,209.904297 L322.412109,208.662109 L324.140625,201.962891 L330.597656,201.962891 L341.738281,215.445312 L328.226562,243.341797 L335.78125,270.835938 L327.144531,297.443359 Z" id="Helmand" sketch:type="MSShapeGroup"></path>
            <path d="M135.373047,528.535156 C135.373047,525.306641 134.644531,484.685547 134.644531,484.685547 L174.880859,414.869141 L189.25,373.976562 L188.263672,341.310547 L204.460938,298.861328 L197.640625,294.599609 L182.144531,295.341797 L169.259766,309.46875 L143.236328,303.269531 L94.9296875,304.382812 L84.7753906,331.136719 L73.6328125,338.578125 L71.2773438,357.060547 L83.1601562,390.498047 L77.3320312,394.726562 L77.6894531,404.980469 L7.97265625,482.609375 L118.425781,531.144531 L135.373047,528.535156 Z" id="Nimruz" sketch:type="MSShapeGroup"></path>
            <path d="M294.271975,211.564922 L284.876953,227.359375 L281.033203,243.355469 L270.607422,246.212891 L253.880859,273.609375 L204.460938,298.861328 L197.640625,294.599609 L182.144531,295.341797 L169.259766,309.46875 L143.236328,303.269531 L94.9296875,304.382812 L84.7753906,331.136719 L73.6328125,338.578125 L71.2773437,357.060547 C71.2773437,357.060547 11.3652344,346.605469 11.3652344,344.119141 C11.3652344,341.632812 5.79492187,299.298828 8.0234375,296.570312 C10.2519531,293.841797 15.9511719,280.201172 15.9511719,280.201172 L1.953125,205.914062 L27.0917969,175.933594 L31.6757812,181.503906 L61.6582031,181.875 L79.2246094,176.675781 L88.7519531,239.708984 L127.773438,234.009766 L129.759766,223.96875 L167.039062,217.769531 L181.050781,203.384766 L213.273438,202.642578 L220.412109,195.353516 L231.136719,195.853516 L244.603516,187.869141 L257.660156,210.583984 L278.085938,210.779297 L280.478516,202.447266 L294.691295,210.461237 L295.259766,209.904297 L294.868909,210.561386 L295.144531,210.716797 L294.271975,211.564922 L294.271975,211.564922 Z" id="Farah" sketch:type="MSShapeGroup"></path>
            <path d="M27.0917969,175.933594 L31.6757812,181.503906 L61.6582031,181.875 L79.2246094,176.675781 L88.7519531,239.708984 L127.773438,234.009766 L129.759766,223.96875 L167.039062,217.769531 L181.050781,203.384766 L178.800781,182.917969 L198.492188,173.625 L212.830078,172.255859 L206.0625,135.525391 L215.310547,119.880859 L229.128906,118.835938 L262.074219,121.839844 L263.074219,92.7285156 L246.777344,99.5175781 L219.863281,100.5625 L206.896484,89.640625 L186.837891,91.359375 L157.507812,70.7109375 L155.941406,36.6582031 L144.412109,32.328125 L133.140625,42.7285156 L127.744141,35.4394531 L112.537109,16.2285156 L96.2402344,20.7539062 L68.28125,0.046875 L53.5078125,26.2890625 L38.5585938,77.1816406 L21.8027344,87.9960938 L29.5917969,105.814453 L16.4296875,107.207031 L3.265625,117.78125 L3.63671875,150.310547 L0.177734375,154.769531 L4.85546875,166.955078 L27.0917969,175.933594 Z" id="Herat" sketch:type="MSShapeGroup"></path>
            <path d="M330.597656,201.962891 L324.140625,201.962891 L322.412109,208.662109 L294.271975,211.564922 L294.868909,210.561386 L295.259766,209.904297 L294.691295,210.461237 L280.478516,202.447266 L278.085938,210.779297 L257.660156,210.583984 L244.603516,187.869141 L231.136719,195.853516 L220.412109,195.353516 L213.273438,202.642578 L181.050781,203.384766 L178.800781,182.917969 L198.492188,173.625 L212.830078,172.255859 L206.0625,135.525391 L215.310547,119.880859 L229.128906,118.835938 L262.074219,121.839844 L263.074219,92.7285156 L283.271484,95.140625 L295.197266,84.4589844 L323.875,82.4140625 L324.919922,67.1171875 L305.685547,42.5332031 L351.267578,43.078125 L366.912109,42.5546875 L397.65625,73.7988281 L420.568359,71.3847656 L434.296875,86.9628906 L430.011719,123.277344 L395.242188,130.173828 L379.052734,122.689453 L354.619141,121.644531 L354.75,151.128906 L344.152344,159.484375 L341.564453,199.041016 L330.597656,201.962891 Z" id="Ghowr" sketch:type="MSShapeGroup"></path>
            <path d="M395.242188,130.173828 L379.052734,122.689453 L354.619141,121.644531 L354.75,151.128906 L344.152344,159.484375 L341.564453,199.041016 L330.597656,201.962891 L324.140625,201.962891 L322.412109,208.662109 L341.738281,215.445312 L328.226562,243.341797 L335.78125,270.835938 L327.144531,297.443359 L336.699219,298.1875 L343.027344,294.216797 L367.337891,301.916016 L374.908203,299.929688 L380.607422,292.746094 L395.392578,286.417969 L418.826172,257.78125 L429.792969,254.669922 L448.132812,235.302734 L454.333984,221.835938 L454.767578,188.091797 L491.257812,167.179688 L469.564453,149.773438 L429.183594,151.316406 L429.009766,127.013672 L407.427734,126.121094 L395.242188,130.173828 Z" id="Oruzgan" sketch:type="MSShapeGroup"></path>
        </g>
    </g>
</svg>